<svg width="18" height="18" viewBox="0 0 18 18" fill="none" xmlns="http://www.w3.org/2000/svg">
<path fill-rule="evenodd" clip-rule="evenodd" d="M9 1C13.4181 1 17 4.58187 17 9C17 13.4181 13.4181 17 9 17C4.58187 17 1 13.4181 1 9C1 4.58187 4.58187 1 9 1V1Z" stroke="#091C3F" stroke-width="1.2" stroke-linecap="round" stroke-linejoin="round"/>
<path fill-rule="evenodd" clip-rule="evenodd" d="M8.99999 12.7333C9.58932 12.7333 10.0667 13.2107 10.0667 13.8C10.0667 14.3893 9.58932 14.8667 8.99999 14.8667C8.41065 14.8667 7.93332 14.3893 7.93332 13.8C7.93332 13.2107 8.41065 12.7333 8.99999 12.7333V12.7333Z" stroke="#4157FF" stroke-width="1.2" stroke-linecap="round" stroke-linejoin="round"/>
<path d="M6.54669 5.26666C6.97336 4.30666 7.88003 3.66666 9.00003 3.66666C10.4934 3.66666 11.6667 4.83999 11.6667 6.33332C11.6667 7.82666 10.4934 8.99999 9.00003 8.99999V10.6" stroke="#4157FF" stroke-width="1.2" stroke-linecap="round" stroke-linejoin="round"/>
</svg>
